<?xml version="1.0" encoding="UTF-8"?>
<svg id="Layer_1" data-name="Layer 1" xmlns="http://www.w3.org/2000/svg" viewBox="0 0 512 512">
  <defs>
    <style>
      .cls-1 {
        fill: #fff;
        stroke-width: 0px;
      }
    </style>
  </defs>
  <path class="cls-1" d="m25.94,162.72c3.07,28.12,51.62,44.91,82.07,67.59-1.84,16.22-11.88,32.17-33.4,42.67-3.79,32.33-27.16,47.37-61.95,52.24-2.56,15.17-10.48,28.35-28.23,37.86l-24.34-20.96,24.18-12.19c1.04-11.84-.58-24.63-20.25-34.8l-5.23-44.56c-24.18-8.73-21.46-18.11-22.05-27.39l-31.19,4.6c-20.23-17.77-18.25-38.28,8.95-37.7l8.51-32.79,22.75,7.91,7.43-16.27h23.27s6.75,18.59,6.75,18.59l42.75-4.8Z"/>
  <path class="cls-1" d="m281.94,419.72c3.07,28.12,51.62,44.91,82.07,67.59-1.84,16.22-11.88,32.17-33.4,42.67-3.79,32.33-27.16,47.37-61.95,52.24-2.56,15.17-10.48,28.35-28.23,37.86l-24.34-20.96,24.18-12.19c1.04-11.84-.58-24.63-20.25-34.8l-5.23-44.56c-24.18-8.73-21.46-18.11-22.05-27.39l-31.19,4.6c-20.23-17.77-18.25-38.28,8.95-37.7l8.51-32.79,22.75,7.91,7.43-16.27h23.27s6.75,18.59,6.75,18.59l42.75-4.8Z"/>
  <path class="cls-1" d="m538.44,162.72c3.07,28.12,51.62,44.91,82.07,67.59-1.84,16.22-11.88,32.17-33.4,42.67-3.79,32.33-27.16,47.37-61.95,52.24-2.56,15.17-10.48,28.35-28.23,37.86l-24.34-20.96,24.18-12.19c1.04-11.84-.58-24.63-20.25-34.8l-5.23-44.56c-24.18-8.73-21.46-18.11-22.05-27.39l-31.19,4.6c-20.23-17.77-18.25-38.28,8.95-37.7l8.51-32.79,22.75,7.91,7.43-16.27h23.27s6.75,18.59,6.75,18.59l42.75-4.8Z"/>
  <path class="cls-1" d="m281.94-93.28c3.07,28.12,51.62,44.91,82.07,67.59-1.84,16.22-11.88,32.17-33.4,42.67-3.79,32.33-27.16,47.37-61.95,52.24-2.56,15.17-10.48,28.35-28.23,37.86l-24.34-20.96,24.18-12.19c1.04-11.84-.58-24.63-20.25-34.8l-5.23-44.56c-24.18-8.73-21.46-18.11-22.05-27.39l-31.19,4.6c-20.23-17.77-18.25-38.28,8.95-37.7l8.51-32.79,22.75,7.91,7.43-16.27h23.27s6.75,18.59,6.75,18.59l42.75-4.8Z"/>
</svg>